<svg fill="currentColor" width="733.592" height="733.592" viewBox="0 0 22.008 22.008" xmlns="http://www.w3.org/2000/svg"><path d="M8.004 20a1 1 0 001-1v-1a2 2 0 014 0v.78A1.223 1.223 0 0014.232 20a7.7 7.7 0 007.772-7.27 7.5 7.5 0 00-7.5-7.73h-2.5V3a1 1 0 00-2 0v2H7.776a7.7 7.7 0 00-7.772 7.27 7.447 7.447 0 002.114 5.453A7.81 7.81 0 008.004 20zM7.776 7h6.728a5.5 5.5 0 015.5 5.67 5.643 5.643 0 01-5 5.279 4 4 0 00-8 .029 5.5 5.5 0 01-5-5.648A5.684 5.684 0 017.776 7zm-3.772 4.5a1 1 0 011-1h1v-1a1 1 0 012 0v1h1a1 1 0 010 2h-1v1a1 1 0 01-2 0v-1h-1a1 1 0 01-1-1zm12-1.5a1 1 0 111 1 1 1 0 01-1-1zm-2 3a1 1 0 111 1 1 1 0 01-1-1z"/></svg>