<svg width="575" height="575" viewBox="0 0 17.25 17.25" xmlns="http://www.w3.org/2000/svg">
    <path
        d="M17.216 16.196l-2.991-8.603c-.21-.565-.68-.915-1.22-.915-.54 0-1.001.35-1.231.936l-2.981 8.582a.75.772 0 101.41.524l.62-1.78h4.352l.62 1.78a.753.753 0 00.96.474.75.772 0 00.45-.988zm-5.842-2.81l1.64-4.722 1.64 4.722zM8.823 4.342c-2.26 3.673-4.301 5.896-6.782 7.378a.746.768 0 01-1.02-.278.738.76 0 01.27-1.05c2.1-1.255 3.82-3.056 5.751-6.04H.75c-.41 0-.75-.35-.75-.771 0-.422.34-.772.75-.772h3.752V.772c0-.422.34-.772.75-.772s.75.35.75.772v2.037h3.751c.41 0 .75.35.75.772 0 .421-.34.771-.75.771h-.94zm.04 7.48a.73.73 0 01-.38-.102c-.65-.391-1.28-.824-1.87-1.276a.75.772 0 01.9-1.235 17.2 17.2 0 001.73 1.173.752.774 0 01-.38 1.44z"
        fill="currentColor" />
</svg>