<svg fill="currentColor" width="800" height="800" viewBox="0 0 256 256" xmlns="http://www.w3.org/2000/svg">
  <path
    d="M88 148a16 16 0 1116-16 16.018 16.018 0 01-16 16zm80-32a16 16 0 1016 16 16.018 16.018 0 00-16-16zm-12.48 45.338a60.08 60.08 0 01-55.04 0 12 12 0 00-11.01 21.326 84.133 84.133 0 0077.061 0 12 12 0 00-11.01-21.326zm86.601-32.585A62.88 62.88 0 01244 144c0 23.286-12.654 44.871-35.63 60.778C186.74 219.753 158.196 228 128 228s-58.74-8.247-80.37-23.222C24.654 188.871 12 167.286 12 144a62.874 62.874 0 011.879-15.247A35.986 35.986 0 0161.4 75.066c16.604-8.364 36.08-13.444 56.378-14.73l6.384-38.309a11.99 11.99 0 0113.662-9.887l31.474 4.842a23.99 23.99 0 11-3.66 23.719l-19.75-3.039-3.827 22.959a145.681 145.681 0 0152.537 14.445 35.986 35.986 0 0147.522 53.687zM228 104a12.001 12.001 0 00-21.71-7.053 11.999 11.999 0 01-15.937 3.185l-.22-.136c-17.07-10.31-39.107-15.988-62.09-15.995l-.028.001-.039-.001c-22.99.003-45.034 5.682-62.11 15.995-.072.046-.145.09-.219.136a11.999 11.999 0 01-15.936-3.185 12.002 12.002 0 10-15.805 17.396 12.001 12.001 0 014.935 15.012A39.695 39.695 0 0036 144c0 15.178 8.982 29.754 25.291 41.046C78.947 197.269 102.638 204 128 204s49.053-6.731 66.709-18.954C211.019 173.754 220 159.178 220 144a39.694 39.694 0 00-2.856-14.683 12 12 0 014.95-14.974A11.919 11.919 0 00228 104z" />
</svg>