<svg fill="currentColor" width="800" height="800" viewBox="0 0 24 24" xmlns="http://www.w3.org/2000/svg">
    <path
        d="M18.695 19.76l-.962-2.604a1 .913 0 00-1.379-.531 3.763 3.433 0 01-1.209.227.937.854 0 01-.66-.15 1.2 1.095 0 01-.238-.738v-3.966h3.016a1 .912 0 001-.912V7.524a1 .912 0 00-1-.913h-3.002V2.876a1 .912 0 00-1-.912h-2.93a1.148 1.047 0 00-1.137.948 5.093 4.646 0 01-3.28 4.158 1 .912 0 00-.662.858v3.27a1 .912 0 001 .912h1.025v4.137a6.411 5.848 0 001.887 4.085 6.905 6.299 0 004.974 1.7h.163c1.546-.024 3.619-.592 4.273-1.467a.998.91 0 00.12-.806zm-4.427.447a4.87 4.443 0 01-3.702-1.175 4.37 3.986 0 01-1.29-2.785v-5.05a1 .912 0 00-1-.912H7.253V8.536a6.954 6.344 0 003.819-4.748h1.19v3.736a1 .912 0 001 .912h3.002v1.738h-3.016a1 .912 0 00-1 .912v4.894a3.077 2.807 0 00.856 2.039 2.767 2.524 0 002.096.657 5.908 5.39 0 00.947-.103l.425 1.148a5.909 5.39 0 01-2.303.486z" />
</svg>